<?xml version="1.0" standalone="no"?>
<!DOCTYPE svg PUBLIC "-//W3C//DTD SVG 20010904//EN"
 "http://www.w3.org/TR/2001/REC-SVG-20010904/DTD/svg10.dtd">
<svg version="1.0" xmlns="http://www.w3.org/2000/svg"
 width="647.000000pt" height="647.000000pt" viewBox="0 0 647.000000 647.000000"
 preserveAspectRatio="xMidYMid meet">
<metadata>
Created by potrace 1.14, written by Peter Selinger 2001-2017
</metadata>
<g transform="translate(0.000000,647.000000) scale(0.100000,-0.100000)"
fill="#000000" stroke="none">
<path d="M3029 5453 c-2 -25 -8 -46 -15 -51 -4 -4 -4 1 -1 11 5 13 3 17 -5 14
-7 -2 -12 -10 -10 -16 1 -8 -3 -8 -17 1 -11 7 -17 16 -15 20 3 4 0 8 -5 8 -14
0 -14 -13 -1 -26 7 -7 6 -11 -5 -11 -8 0 -15 3 -15 7 0 4 -7 7 -15 7 -12 0
-12 -3 -2 -16 10 -13 7 -12 -15 2 -23 14 -26 14 -22 2 8 -20 -13 -19 -24 1 -8
15 -10 15 -15 -1 -4 -9 -11 -14 -17 -10 -5 3 -19 0 -31 -7 -17 -10 -23 -10
-26 -1 -4 10 -7 10 -18 0 -7 -7 -11 -15 -9 -18 2 -3 -3 -6 -11 -6 -8 0 -12 4
-9 9 3 4 -2 5 -10 2 -9 -3 -14 -10 -11 -14 3 -5 0 -12 -6 -16 -7 -4 -9 -3 -5
4 3 6 2 13 -4 17 -5 3 -10 1 -10 -5 0 -8 -6 -7 -21 1 -13 7 -19 7 -15 1 3 -6
2 -13 -4 -17 -5 -3 -10 0 -10 7 0 7 -6 4 -12 -7 -16 -29 -18 -31 -27 -17 -4 7
-15 10 -24 6 -9 -3 -14 -11 -10 -18 4 -6 -1 -5 -10 3 -13 10 -17 10 -17 1 0
-7 -7 -10 -16 -6 -10 4 -13 2 -8 -6 5 -7 -1 -9 -19 -6 -20 4 -24 2 -19 -11 3
-9 1 -13 -3 -8 -5 4 -17 -1 -27 -10 -16 -14 -21 -15 -27 -4 -6 9 -10 10 -12 2
-2 -6 -16 -12 -31 -13 -22 -2 -25 -5 -15 -17 10 -12 9 -13 -11 -2 -16 9 -22 9
-20 0 2 -6 -7 -15 -20 -20 -17 -6 -21 -6 -16 4 4 6 -2 3 -13 -8 -11 -11 -18
-24 -15 -30 3 -5 -2 -4 -11 4 -12 9 -17 10 -17 2 0 -7 -4 -10 -9 -7 -5 3 -12
-1 -15 -10 -3 -9 -12 -14 -19 -11 -6 2 -18 -3 -25 -12 -10 -12 -12 -13 -6 -1
7 12 5 13 -8 3 -8 -7 -19 -9 -24 -5 -4 4 -2 -2 6 -12 10 -13 10 -17 3 -12 -7
4 -13 3 -13 -3 0 -6 -6 -8 -14 -5 -9 3 -20 -3 -28 -15 -7 -12 -16 -21 -21 -21
-4 0 -5 4 -2 10 3 5 0 7 -9 4 -8 -3 -13 -11 -10 -18 3 -7 -2 -13 -11 -14 -8
-1 -21 -3 -29 -4 -8 -1 -12 -7 -9 -14 2 -6 -1 -15 -8 -20 -8 -5 -10 -3 -4 5 4
7 -4 5 -19 -4 -14 -9 -23 -22 -19 -28 3 -6 1 -7 -5 -3 -7 4 -12 1 -12 -6 0 -9
-3 -9 -10 2 -9 13 -10 13 -11 0 -1 -8 -1 -19 0 -23 1 -5 -3 -6 -9 -2 -5 3 -10
1 -10 -5 0 -7 -7 -9 -16 -6 -13 5 -15 2 -11 -13 3 -14 1 -18 -9 -14 -8 3 -14
0 -14 -7 0 -6 -4 -8 -10 -5 -5 3 -10 -3 -10 -14 0 -12 -5 -21 -11 -21 -5 0 -7
6 -4 13 4 6 -3 1 -15 -13 -12 -14 -18 -19 -14 -11 5 10 3 12 -5 7 -9 -6 -9
-11 -1 -21 8 -9 4 -12 -15 -10 -14 2 -23 -1 -19 -6 3 -5 10 -6 16 -3 7 4 8 2
4 -4 -4 -7 -14 -12 -22 -12 -8 0 -14 -5 -14 -11 0 -5 -4 -7 -10 -4 -6 3 -7 -1
-4 -10 4 -10 2 -15 -7 -13 -8 2 -13 -2 -12 -9 2 -7 -4 -10 -13 -6 -9 3 -14 0
-12 -8 2 -8 -3 -13 -11 -11 -12 3 -12 0 -2 -12 10 -12 8 -14 -13 -12 -14 2
-24 -2 -23 -8 1 -6 -4 -10 -11 -8 -8 1 -11 -2 -7 -8 5 -8 12 -7 23 1 10 7 2
-2 -16 -19 -18 -18 -37 -32 -43 -32 -5 0 -8 -3 -8 -7 3 -20 -2 -34 -11 -28 -6
3 -10 1 -10 -5 0 -6 -5 -8 -11 -4 -7 4 -7 -1 1 -16 8 -15 8 -20 1 -16 -6 4
-11 2 -11 -4 0 -6 -4 -9 -9 -5 -5 3 -12 -4 -16 -15 -4 -11 -11 -17 -17 -14 -7
5 -8 2 -4 -5 8 -13 -22 -54 -34 -46 -3 2 -6 -6 -6 -17 1 -14 -9 -27 -24 -35
-14 -7 -19 -13 -11 -13 11 0 9 -4 -5 -15 -19 -15 -19 -15 1 -9 20 7 20 7 0 -9
-11 -8 -23 -13 -26 -11 -4 2 -5 -6 -1 -18 4 -16 2 -19 -9 -13 -12 8 -12 6 -1
-8 12 -14 11 -16 -7 -12 -14 3 -18 0 -14 -11 3 -8 -3 -22 -13 -30 -11 -9 -13
-13 -6 -9 6 3 12 1 12 -4 0 -6 -7 -11 -16 -11 -10 0 -14 -6 -11 -15 4 -8 1
-17 -5 -21 -7 -5 -8 -2 -3 6 5 9 4 11 -4 6 -9 -6 -9 -11 -1 -21 8 -10 8 -15
-1 -21 -8 -4 -9 -3 -5 4 4 7 5 12 2 12 -2 0 -11 -14 -20 -30 -8 -17 -10 -27
-4 -24 6 4 9 1 6 -7 -3 -8 -10 -14 -15 -14 -17 0 -28 -15 -12 -15 10 -1 9 -4
-4 -11 -10 -6 -14 -15 -10 -22 12 -20 12 -36 0 -31 -18 6 -37 -42 -23 -57 8
-9 8 -10 -1 -5 -16 9 -17 -6 -2 -21 9 -9 6 -11 -12 -7 -19 5 -21 4 -9 -5 11
-8 12 -11 2 -11 -7 0 -11 -4 -7 -9 3 -6 -3 -14 -12 -20 -12 -7 -13 -10 -4 -11
11 0 11 -3 0 -17 -9 -11 -10 -14 -2 -9 9 5 11 2 7 -8 -3 -9 -10 -13 -15 -10
-5 3 -6 -3 -2 -12 5 -13 3 -15 -8 -9 -12 7 -12 6 -1 -7 10 -13 10 -19 -3 -32
-12 -12 -13 -16 -3 -16 10 0 10 -2 -1 -9 -9 -6 -10 -11 -2 -15 7 -5 7 -14 -1
-31 -6 -13 -14 -22 -19 -20 -4 3 -10 1 -13 -4 -4 -5 -1 -13 5 -17 8 -5 9 -3 4
6 -5 9 -4 11 3 6 9 -5 7 -14 -4 -32 -13 -19 -14 -24 -3 -24 10 0 10 -3 3 -8
-6 -4 -11 -30 -11 -58 0 -29 -3 -56 -5 -60 -3 -5 -4 -19 -3 -31 1 -17 -2 -20
-10 -13 -9 7 -17 5 -26 -7 -8 -9 -9 -14 -2 -10 6 4 14 3 18 -3 3 -5 1 -10 -6
-10 -7 0 -9 -10 -7 -25 3 -15 1 -25 -7 -25 -6 0 -11 -13 -11 -30 0 -16 4 -30
9 -30 6 0 6 -5 0 -12 -13 -19 -16 -68 -4 -68 6 0 11 -5 11 -11 0 -5 -4 -7 -10
-4 -5 3 -10 -1 -10 -9 0 -8 5 -18 12 -22 7 -5 8 -3 3 6 -5 9 -4 11 4 6 6 -4 9
-12 5 -17 -3 -5 -10 -7 -15 -4 -5 4 -9 -1 -9 -10 0 -10 5 -13 12 -9 7 5 8 3 2
-7 -14 -23 -17 -62 -3 -54 8 5 7 1 -1 -15 -10 -20 -10 -22 3 -17 11 4 13 0 9
-16 -3 -12 -9 -25 -14 -28 -6 -3 -2 -9 7 -12 9 -4 13 -3 10 2 -3 5 -1 12 4 15
11 7 9 -13 -3 -32 -4 -7 -5 -16 -1 -20 3 -3 10 -1 14 7 6 10 10 9 14 -4 4 -9
3 -14 -1 -11 -4 2 -14 1 -22 -5 -13 -7 -12 -9 3 -9 9 0 17 -4 17 -10 0 -5 -8
-7 -18 -4 -9 3 -6 -2 8 -10 14 -8 21 -15 16 -16 -5 0 -2 -8 5 -17 8 -9 9 -14
3 -10 -7 4 -14 -2 -17 -14 -5 -17 -3 -18 9 -8 8 6 17 9 21 5 3 -3 1 -6 -5 -6
-6 0 -9 -7 -5 -17 4 -11 3 -14 -5 -9 -9 5 -10 1 -3 -16 4 -13 6 -29 4 -35 -3
-7 1 -13 7 -13 10 0 10 -3 1 -14 -9 -11 -8 -15 4 -20 11 -4 14 -12 10 -27 -5
-15 -4 -19 4 -15 7 4 11 -1 11 -13 0 -10 -6 -22 -12 -24 -8 -3 -6 -6 4 -6 11
-1 15 -6 12 -16 -4 -8 0 -23 7 -32 10 -12 10 -15 2 -9 -18 10 -16 -5 4 -29 12
-16 14 -16 10 -3 -3 10 -2 20 3 23 9 6 7 -28 -5 -60 -5 -16 -5 -17 4 -5 9 12
11 9 11 -17 0 -17 7 -39 16 -47 8 -9 12 -16 8 -16 -3 0 -2 -6 5 -13 8 -10 7
-17 -1 -25 -9 -9 -6 -12 12 -13 23 0 23 -1 5 -9 -14 -6 -16 -9 -5 -10 8 -2 18
-2 21 -2 3 1 3 -12 1 -29 -4 -27 3 -34 30 -30 4 0 5 -6 2 -14 -4 -9 0 -23 7
-32 12 -14 12 -16 -1 -8 -9 5 -7 -1 5 -15 11 -13 14 -20 6 -15 -10 6 -12 4 -7
-4 5 -7 14 -10 22 -7 8 3 11 0 7 -9 -3 -8 -10 -12 -17 -8 -6 3 -1 -4 12 -16
12 -12 20 -26 17 -31 -3 -4 2 -11 11 -14 10 -4 13 -13 9 -28 -5 -18 -4 -20 4
-8 9 13 11 12 11 -3 0 -10 5 -15 10 -12 6 4 10 -5 10 -20 0 -15 4 -24 10 -20
5 3 10 1 10 -5 0 -6 6 -8 13 -4 9 5 9 4 0 -6 -9 -10 -8 -16 6 -29 9 -9 12 -14
6 -11 -6 3 -3 -3 8 -12 10 -10 16 -22 12 -27 -3 -6 3 -16 15 -23 11 -7 20 -18
20 -25 0 -7 4 -13 9 -13 5 0 13 -9 16 -20 4 -11 11 -18 16 -15 5 4 12 -2 16
-11 11 -28 36 -54 53 -54 13 0 13 -1 0 -10 -13 -9 -7 -14 12 -11 4 0 4 -7 1
-16 -4 -10 -2 -14 4 -10 6 4 14 0 17 -9 3 -9 11 -12 18 -8 7 4 10 4 6 -1 -4
-4 6 -20 22 -35 17 -16 30 -36 30 -47 0 -14 2 -15 9 -4 7 11 10 9 16 -7 3 -12
12 -21 18 -19 7 1 11 -6 11 -15 -1 -10 4 -14 12 -11 9 3 14 -1 14 -12 0 -9 3
-14 8 -12 10 7 32 -19 24 -29 -4 -4 1 -4 10 -1 10 3 17 3 17 -1 -3 -19 2 -23
15 -13 12 10 14 9 10 -7 -5 -16 18 -47 35 -47 3 0 5 -4 3 -8 -1 -5 7 -6 18 -2
11 4 20 3 19 -2 -3 -20 2 -34 11 -28 6 3 10 1 10 -4 0 -6 5 -10 12 -8 6 1 17
-9 24 -21 7 -15 14 -20 19 -12 10 15 38 -9 31 -27 -5 -11 -1 -11 15 -2 17 9
20 8 14 -2 -6 -9 -3 -11 8 -6 9 3 16 3 16 -1 -1 -4 -1 -14 0 -22 1 -13 2 -13
11 0 8 13 10 13 10 -2 0 -12 6 -16 21 -13 17 4 19 2 8 -11 -10 -12 -9 -13 5
-8 11 4 23 -1 32 -12 9 -11 13 -12 9 -4 -4 8 1 6 9 -4 9 -11 19 -17 22 -13 4
3 14 -2 23 -11 9 -10 14 -13 11 -7 -3 6 3 2 13 -8 9 -11 17 -14 17 -7 0 7 6 6
16 -4 8 -9 20 -14 25 -11 5 4 9 0 9 -8 0 -10 7 -13 20 -10 12 3 20 0 20 -6 0
-7 4 -10 9 -7 5 4 11 1 13 -4 3 -10 24 -17 56 -19 7 -1 10 -5 7 -11 -4 -6 6
-8 25 -6 21 2 33 -1 37 -11 3 -8 11 -12 18 -9 16 6 48 -27 38 -39 -5 -5 3 -1
17 8 28 20 40 21 40 6 0 -5 -5 -7 -12 -3 -6 4 -8 3 -5 -4 8 -11 25 -11 43 1 7
4 14 -2 18 -15 4 -18 8 -20 18 -10 14 14 32 16 24 3 -3 -5 1 -12 10 -15 8 -3
12 -2 9 4 -3 6 -2 10 4 10 5 0 12 -6 14 -12 4 -9 6 -9 6 1 1 11 5 10 17 -5 8
-10 13 -13 9 -6 -3 6 -2 12 4 12 5 0 12 -6 14 -12 4 -9 6 -9 6 1 1 11 5 10 17
-5 8 -10 13 -12 9 -4 -5 11 -3 10 7 -2 10 -11 19 -14 29 -7 20 12 32 11 23 -3
-5 -7 -3 -8 7 -3 7 5 22 10 31 10 13 1 15 -2 7 -11 -8 -9 -5 -11 12 -7 14 4
20 2 16 -5 -8 -12 11 -11 32 2 11 7 13 5 9 -5 -9 -23 471 -22 490 1 12 13 13
12 8 -5 -5 -17 -4 -17 12 4 15 18 21 21 27 11 5 -8 4 -11 -2 -7 -5 3 -10 0
-10 -8 0 -9 4 -11 11 -6 6 5 19 7 29 6 9 -2 15 1 11 6 -3 5 -11 6 -17 3 -9 -5
-9 -4 -1 5 10 10 17 10 35 0 21 -11 22 -10 12 3 -10 12 -10 15 2 15 8 0 15 -4
15 -9 0 -5 4 -7 10 -3 5 3 7 13 4 23 -4 10 -2 13 3 7 4 -5 17 -17 27 -25 18
-14 18 -13 13 10 -4 14 -4 19 -1 13 3 -7 12 -13 20 -13 10 0 12 5 8 12 -5 8 0
7 11 -2 11 -9 16 -10 11 -2 -7 11 12 17 38 13 4 -1 15 4 24 11 13 11 15 10 9
-4 -5 -15 -3 -16 18 -6 14 6 25 15 25 19 0 4 7 10 16 13 12 5 15 2 10 -11 -6
-16 -6 -16 12 0 21 19 37 23 26 5 -5 -7 -3 -8 5 -4 7 5 10 14 7 22 -3 8 0 11
8 8 8 -3 17 -1 21 5 4 8 12 8 25 1 17 -9 19 -8 13 7 -6 16 -5 17 12 3 11 -9
16 -10 11 -2 -5 8 2 12 23 12 17 0 31 5 31 12 0 6 3 9 6 5 3 -3 15 3 27 13 11
11 24 17 29 14 5 -3 16 0 25 8 14 11 16 11 9 -2 -6 -12 -4 -11 6 1 7 9 19 14
26 12 6 -3 12 1 12 7 0 7 7 10 16 6 8 -3 13 -2 10 3 -3 4 7 13 22 20 25 11 26
10 8 -4 -11 -8 -15 -15 -8 -15 6 0 18 10 26 22 9 12 16 18 16 13 0 -5 7 0 16
11 8 10 13 12 9 4 -5 -12 -4 -12 7 1 7 9 19 14 27 11 8 -3 11 0 7 6 -5 9 54
44 71 41 19 -3 25 2 15 14 -8 10 -5 13 14 15 34 3 46 11 40 27 -3 9 2 12 15
10 11 -2 19 2 19 9 0 8 8 20 17 27 11 10 14 10 9 2 -10 -18 10 -16 28 3 9 8
13 20 10 26 -4 6 1 6 14 -1 18 -10 20 -8 18 13 -2 17 1 23 10 19 8 -3 14 0 14
7 0 6 5 8 10 5 6 -3 10 -1 10 5 0 6 5 8 13 4 9 -6 9 -4 -1 8 -11 14 -10 16 8
11 16 -4 19 -2 13 12 -4 13 -3 16 5 11 7 -4 12 -2 12 3 0 6 6 10 13 8 7 -1 11
6 9 16 -2 9 1 17 5 16 21 -4 31 3 36 22 3 12 9 19 14 16 4 -3 17 2 28 10 19
15 19 15 1 9 -16 -5 -17 -4 -6 8 6 9 15 15 18 14 20 -2 25 4 12 13 -12 9 -11
10 7 6 12 -3 22 -2 21 2 -2 19 3 31 15 28 7 -1 11 6 9 17 -2 11 1 15 7 11 6
-3 11 1 11 10 0 10 5 13 12 9 8 -5 9 -2 4 11 -6 16 -4 16 11 4 14 -12 16 -12
8 0 -6 11 -4 13 10 7 14 -5 16 -4 7 7 -9 10 -8 18 3 33 15 19 15 19 9 -1 l-6
-20 13 20 c8 11 14 25 14 30 1 6 7 9 14 7 9 -2 12 4 8 17 -4 18 -3 19 16 9 19
-10 20 -9 10 4 -10 11 -9 19 2 35 8 11 11 24 7 29 -4 5 1 2 11 -5 14 -11 17
-11 17 2 0 9 8 21 18 27 15 10 15 11 0 6 -12 -3 -15 -1 -11 9 3 8 9 12 14 9 5
-3 9 2 9 11 0 9 5 13 10 10 6 -4 10 -3 9 2 -4 21 2 34 13 27 8 -5 9 -2 5 9 -3
10 -2 17 4 17 6 0 7 5 4 10 -3 6 -1 10 4 10 6 0 10 3 10 8 -3 20 2 25 12 12 9
-12 10 -11 6 8 -3 12 -1 22 5 22 5 0 6 5 3 10 -3 6 -1 10 5 10 6 0 8 5 4 12
-5 7 -2 9 8 5 12 -4 14 -1 11 14 -4 13 0 19 13 20 14 1 13 3 -6 9 l-25 8 25 1
c20 1 22 3 10 11 -13 8 -12 10 3 10 10 0 16 4 12 9 -3 5 -1 13 5 16 8 5 7 11
-1 21 -10 12 -9 13 4 8 12 -4 15 -1 12 15 -2 12 0 19 6 16 5 -4 9 -1 9 5 0 6
5 8 12 4 8 -5 8 -3 2 7 -5 8 -9 24 -9 36 -1 18 2 20 14 10 12 -10 14 -9 8 6
-4 9 -2 17 4 17 6 0 9 6 6 14 -3 7 2 24 10 37 9 12 12 20 6 16 -5 -3 -10 0
-10 7 0 8 7 12 14 9 11 -4 12 1 7 22 -6 22 -4 26 7 20 11 -7 11 -5 -1 10 -8
10 -10 16 -4 12 6 -3 16 5 22 18 7 15 8 25 2 25 -5 0 -7 7 -4 15 4 8 9 13 13
10 4 -2 8 2 8 10 0 8 -4 12 -9 9 -14 -9 -9 14 8 30 10 11 11 16 3 16 -8 0 -6
7 5 19 16 18 16 20 -1 37 -16 16 -16 17 -1 11 10 -3 20 -2 23 3 4 6 1 10 -6
10 -8 0 -8 4 2 16 10 12 10 17 1 23 -7 4 -10 15 -6 24 3 9 11 14 18 10 6 -4 5
1 -3 10 -8 11 -9 17 -3 17 7 0 9 7 5 17 -5 13 -2 15 13 10 18 -7 18 -6 1 7
-13 10 -14 15 -6 18 19 6 19 100 -1 116 -13 10 -13 12 0 10 11 -2 15 9 16 52
1 30 -4 61 -10 69 -8 11 -8 13 2 7 17 -10 15 4 -5 28 -14 15 -14 18 -2 8 14
-11 16 1 15 122 -1 94 -4 132 -12 129 -6 -2 -14 3 -18 13 -5 12 -2 15 11 10
16 -6 16 -6 0 12 -9 10 -14 22 -10 25 3 4 1 7 -5 7 -7 0 -12 5 -12 11 0 5 4 8
9 5 5 -4 7 4 3 16 -4 16 -2 19 8 13 9 -5 11 -4 6 4 -4 6 -11 9 -16 6 -4 -3
-10 4 -13 14 -3 15 -1 18 12 14 9 -3 6 4 -9 18 -14 13 -19 20 -11 14 12 -8 12
-7 3 11 -8 16 -8 24 1 34 7 7 7 10 2 7 -6 -3 -17 4 -24 15 -11 18 -11 20 1 15
8 -3 15 1 15 8 0 8 -5 13 -11 12 -6 -1 -11 8 -10 21 0 12 -4 22 -9 22 -5 0 -6
7 -3 16 3 8 2 13 -3 10 -5 -3 -12 1 -15 10 -3 8 -2 13 3 10 5 -3 11 1 15 9 6
17 -32 47 -47 38 -6 -3 -7 -1 -3 6 4 6 12 9 17 6 5 -4 9 -1 9 5 0 6 -7 13 -15
16 -11 5 -12 11 -5 24 7 13 6 21 -2 26 -7 5 -8 3 -3 -6 6 -9 4 -11 -4 -6 -7 5
-10 14 -7 22 3 8 2 14 -3 14 -7 0 -11 15 -12 53 0 15 -3 16 -15 6 -8 -6 -17
-9 -21 -5 -3 3 -2 6 4 6 6 0 10 11 9 24 0 13 -4 22 -8 19 -5 -2 -8 5 -8 17 0
12 -4 18 -10 15 -5 -3 -10 2 -10 12 0 11 -6 25 -12 32 -11 11 -10 12 2 6 13
-8 13 -7 0 10 -8 11 -22 27 -30 35 -9 8 -10 11 -3 6 10 -6 12 -4 7 8 -3 9 -10
16 -15 16 -5 0 -9 5 -9 11 0 7 -8 18 -17 26 -12 10 -13 12 -3 8 9 -4 8 0 -3 8
-16 13 -23 29 -26 60 -1 4 -6 6 -12 5 -6 -2 -16 10 -22 27 -6 16 -15 35 -21
41 -6 6 -17 21 -25 32 -8 12 -19 18 -25 15 -5 -4 -7 1 -3 10 4 11 1 17 -9 17
-9 0 -12 5 -8 12 5 8 2 9 -11 4 -15 -5 -16 -4 -5 9 9 11 9 15 1 15 -7 0 -9 5
-5 12 5 8 2 9 -9 5 -13 -5 -17 -1 -17 14 0 15 -5 19 -16 15 -8 -3 -12 -2 -9 4
3 6 1 10 -6 10 -7 0 -10 3 -6 6 8 8 -34 54 -50 54 -8 0 -11 5 -8 10 3 6 1 10
-5 10 -6 0 -8 5 -4 12 5 8 2 9 -10 5 -10 -4 -15 -3 -11 3 3 6 1 10 -5 10 -6 0
-8 5 -5 10 3 6 0 10 -8 10 -8 0 -17 7 -21 15 -3 8 -13 15 -22 15 -14 0 -14 3
-4 15 11 13 10 14 -4 9 -12 -5 -19 0 -23 16 -4 16 -8 18 -14 8 -7 -10 -9 -9
-9 4 0 9 -5 20 -12 24 -7 5 -8 3 -3 -7 5 -8 -1 -5 -13 5 -24 21 -29 31 -9 20
7 -4 9 -3 4 2 -5 5 -14 9 -20 9 -7 1 -11 6 -10 13 2 6 -3 9 -11 6 -7 -3 -19 3
-27 13 -13 17 -13 17 6 3 18 -14 19 -14 7 2 -7 9 -22 15 -34 13 -17 -4 -18 -2
-6 12 8 11 8 14 1 10 -7 -4 -21 2 -32 14 -11 12 -24 18 -32 14 -8 -5 -10 -4
-5 3 4 7 1 12 -8 12 -9 0 -16 7 -16 15 0 8 -5 15 -11 15 -5 0 -7 -6 -3 -12 4
-7 -2 -4 -13 7 -11 11 -19 23 -16 28 2 4 -3 7 -12 7 -10 0 -13 -5 -9 -12 5 -9
2 -8 -10 1 -9 8 -15 20 -12 27 3 8 -2 11 -15 9 -10 -2 -19 1 -19 7 0 6 -3 9
-6 5 -4 -3 -14 3 -24 15 -13 16 -19 18 -25 8 -5 -8 -4 -11 3 -6 6 3 13 2 16
-3 4 -5 -2 -8 -11 -6 -10 1 -17 8 -16 14 2 6 -3 11 -11 11 -8 0 -18 5 -22 12
-5 7 -3 8 6 3 9 -5 11 -4 6 4 -6 9 -11 9 -22 0 -13 -10 -18 -6 -16 13 1 3 -5
9 -14 12 -8 3 -12 1 -9 -4 3 -6 -1 -7 -9 -4 -9 3 -13 10 -10 15 3 5 -2 6 -10
3 -8 -3 -16 2 -19 13 -4 17 -5 17 -6 0 0 -10 -6 -15 -11 -12 -6 4 -8 11 -4 17
3 5 -2 9 -12 7 -27 -3 -55 11 -47 25 4 7 2 7 -7 -1 -10 -9 -16 -8 -28 3 -8 8
-21 13 -28 10 -7 -3 -16 0 -20 6 -5 7 -2 8 6 3 9 -5 11 -4 6 4 -6 9 -11 9 -22
0 -11 -9 -15 -8 -20 5 -3 9 -10 14 -14 11 -5 -3 -14 1 -22 8 -7 8 -18 12 -25
10 -6 -2 -14 1 -18 7 -5 8 -11 7 -23 -2 -14 -11 -15 -10 -9 6 6 16 5 17 -8 6
-11 -9 -15 -9 -15 -1 0 7 -4 10 -8 7 -5 -3 -21 2 -36 10 -34 17 -36 17 -36 3
0 -5 5 -7 12 -3 7 4 8 3 4 -4 -9 -15 -36 -3 -37 17 0 12 -2 12 -9 -4 -8 -18
-9 -18 -10 5 -1 14 -4 19 -7 13 -2 -7 -9 -13 -14 -13 -6 0 -7 6 -3 13 5 8 2 8
-9 -2 -16 -13 -21 -9 -18 14 1 6 -6 1 -14 -9 -13 -17 -15 -17 -15 -4 0 13 -6
15 -28 8 -16 -4 -35 -4 -43 0 -8 5 -31 7 -51 6 -21 -2 -35 1 -32 6 3 4 9 6 14
3 5 -3 11 -1 14 4 3 4 -4 8 -17 7 -13 -1 -21 4 -19 12 1 8 -2 11 -7 8 -5 -4
-11 -3 -14 1 -2 5 -2 2 0 -6 2 -8 -2 -11 -12 -7 -9 3 -13 2 -10 -3 3 -5 0 -13
-6 -17 -8 -4 -9 -3 -5 5 4 6 0 14 -8 17 -9 3 -14 9 -12 13 6 9 -57 8 -71 -2
-7 -5 -13 -4 -13 1 0 5 -7 9 -15 9 -16 0 -19 -8 -7 -23 4 -5 0 -3 -8 6 -11 11
-40 15 -117 16 -56 0 -100 -2 -98 -6 3 -4 15 -6 27 -5 13 1 15 0 5 -2 -9 -2
-15 -8 -12 -13 3 -4 -6 -3 -19 3 -13 7 -22 16 -19 21 4 5 1 6 -5 2 -7 -4 -12
-14 -12 -22 0 -8 -4 -13 -10 -9 -5 3 -7 12 -3 20 3 8 2 15 -1 15 -3 0 -6 -3
-7 -7z m369 -28 c-3 -3 -9 2 -12 12 -6 14 -5 15 5 6 7 -7 10 -15 7 -18z m507
-95 c3 -5 1 -10 -4 -10 -6 0 -11 5 -11 10 0 6 2 10 4 10 3 0 8 -4 11 -10z
m1450 -1420 c3 -5 1 -10 -4 -10 -6 0 -11 5 -11 10 0 6 2 10 4 10 3 0 8 -4 11
-10z m91 -450 c0 -22 -4 -40 -7 -40 -3 0 -6 18 -5 40 0 22 4 40 7 40 3 0 6
-18 5 -40z m-4405 -79 c-8 -5 -10 -14 -6 -22 6 -11 5 -11 -5 -2 -14 12 -6 33
13 33 8 0 7 -3 -2 -9z m4409 -5 c0 -3 -4 -8 -10 -11 -5 -3 -10 -1 -10 4 0 6 5
11 10 11 6 0 10 -2 10 -4z m0 -40 c0 -2 -7 -7 -16 -10 -8 -3 -12 -2 -9 4 6 10
25 14 25 6z m0 -46 c0 -5 -5 -10 -11 -10 -5 0 -7 5 -4 10 3 6 8 10 11 10 2 0
4 -4 4 -10z m-5 -119 c3 -5 2 -12 -3 -15 -5 -3 -9 1 -9 9 0 17 3 19 12 6z m2
-46 c0 -8 -4 -12 -9 -9 -5 3 -6 10 -3 15 9 13 12 11 12 -6z m-2 -65 c3 -6 -1
-7 -9 -4 -18 7 -21 14 -7 14 6 0 13 -4 16 -10z m-1 -47 c-3 -36 -2 -35 -14
-28 -6 4 -7 12 -3 18 4 7 8 15 9 20 6 29 11 22 8 -10z m-4270 -509 c3 -8 2
-12 -4 -9 -6 3 -10 10 -10 16 0 14 7 11 14 -7z m696 -980 c0 -8 -19 -13 -24
-6 -3 5 1 9 9 9 8 0 15 -2 15 -3z m700 -394 c0 -5 -2 -10 -4 -10 -3 0 -8 5
-11 10 -3 6 -1 10 4 10 6 0 11 -4 11 -10z m463 -93 c4 3 7 1 7 -5 0 -6 -8 -10
-18 -9 -10 0 -19 7 -19 14 0 9 4 10 12 3 7 -5 15 -7 18 -3z m430 -2 c-3 -9 -8
-14 -10 -11 -3 3 -2 9 2 15 9 16 15 13 8 -4z m-373 -5 c0 -5 -4 -10 -10 -10
-5 0 -10 5 -10 10 0 6 5 10 10 10 6 0 10 -4 10 -10z m35 0 c3 -5 1 -10 -4 -10
-6 0 -11 5 -11 10 0 6 2 10 4 10 3 0 8 -4 11 -10z m45 0 c0 -5 -5 -10 -11 -10
-5 0 -7 5 -4 10 3 6 8 10 11 10 2 0 4 -4 4 -10z m60 0 c0 -5 -2 -10 -4 -10 -3
0 -8 5 -11 10 -3 6 -1 10 4 10 6 0 11 -4 11 -10z m144 2 c3 -5 -1 -9 -9 -9 -8
0 -12 4 -9 9 3 4 7 8 9 8 2 0 6 -4 9 -8z m36 -2 c0 -5 -2 -10 -4 -10 -3 0 -8
5 -11 10 -3 6 -1 10 4 10 6 0 11 -4 11 -10z"/>
<path d="M2426 5283 c-6 -14 -5 -15 5 -6 7 7 10 15 7 18 -3 3 -9 -2 -12 -12z"/>
<path d="M1085 3750 c-3 -5 -2 -10 4 -10 5 0 13 5 16 10 3 6 2 10 -4 10 -5 0
-13 -4 -16 -10z"/>
<path d="M1054 3542 c3 -6 -1 -15 -10 -20 -15 -8 -14 -10 2 -16 10 -4 15 -4
11 0 -4 4 -2 13 4 20 7 8 6 14 -2 20 -7 4 -9 3 -5 -4z"/>
<path d="M1215 2321 c-3 -5 -2 -12 3 -15 5 -3 9 1 9 9 0 17 -3 19 -12 6z"/>
<path d="M4365 1320 c-3 -6 1 -7 9 -4 18 7 21 14 7 14 -6 0 -13 -4 -16 -10z"/>
<path d="M4089 1183 c-13 -16 -12 -17 4 -4 9 7 17 15 17 17 0 8 -8 3 -21 -13z"/>
<path d="M3929 1123 c-12 -16 -12 -17 2 -6 9 7 20 9 24 5 5 -4 5 -1 1 6 -9 16
-11 15 -27 -5z"/>
</g>
</svg>
